<?xml version="1.0" encoding="utf-8"?>
<COLLADA xmlns="http://www.collada.org/2005/11/COLLADASchema" version="1.4.1">
<asset><unit name="meter" meter="1"/><up_axis>Z_UP</up_axis></asset>
<library_effects><effect id="Material-effect"><profile_COMMON><technique sid="common"><phong><diffuse><color>0.0884860083 0.0884860083 0.0884860083 1</color></diffuse><specular><color>0.1 0.1 0.1 1</color></specular><shininess><float>20</float></shininess></phong></technique></profile_COMMON></effect><effect id="MaterialBody-effect"><profile_COMMON><technique sid="common"><phong><diffuse><color>0.023114536 0.023114536 0.023114536 1</color></diffuse><specular><color>0.1 0.1 0.1 1</color></specular><shininess><float>20</float></shininess></phong></technique></profile_COMMON></effect></library_effects>
<library_materials><material id="Material-material" name="Material"><instance_effect url="#Material-effect"/></material><material id="MaterialBody-material" name="MaterialBody"><instance_effect url="#MaterialBody-effect"/></material></library_materials>
<library_geometries><geometry id="Material-mesh" name="Material"><mesh>
<source id="Material-positions"><float_array id="Material-positions-array" count="258">-0.199 -0.095 0.14 -0.199 -0.095 0.14 -0.391 -0.095 0.14 -0.391 -0.095 0.14 -0.34 -0.265 0.03 -0.34 -0.265 0.03 -0.34 -0.265 0.03 -0.25 -0.265 0.03 -0.25 -0.265 0.03 -0.25 -0.265 0.03 -0.199 -0.095 1.51794e-08 -0.199 -0.095 1.51794e-08 -0.25 -0.265 -0.12 -0.25 -0.265 -0.12 -0.25 -0.265 -0.12 -0.25 -0.265 -0.12 -0.391 -0.095 1.51794e-08 -0.391 -0.095 1.51794e-08 -0.34 -0.265 -0.12 -0.34 -0.265 -0.12 -0.34 -0.265 -0.12 -0.34 -0.265 -0.12 -0.391 0.095 0.14 -0.391 0.095 0.14 -0.199 0.095 0.14 -0.199 0.095 0.14 -0.25 0.265 0.03 -0.25 0.265 0.03 -0.34 0.265 0.03 -0.34 0.265 0.03 -0.199 0.095 -1.57755e-08 -0.199 0.095 -1.57755e-08 -0.25 0.265 -0.12 -0.25 0.265 -0.12 -0.25 0.265 -0.12 0.199 0.095 0.14 0.199 0.095 0.14 0.391 0.095 0.14 0.391 0.095 0.14 0.34 0.265 0.03 0.34 0.265 0.03 0.25 0.265 0.03 0.25 0.265 0.03 0.199 0.095 -1.57755e-08 0.199 0.095 -1.57755e-08 0.25 0.265 -0.12 0.25 0.265 -0.12 0.25 0.265 -0.12 0.391 0.095 -1.57755e-08 0.391 0.095 -1.57755e-08 0.34 0.265 -0.12 0.34 0.265 -0.12 0.34 0.265 -0.12 -0.391 0.095 -1.57755e-08 -0.391 0.095 -1.57755e-08 -0.34 0.265 -0.12 -0.34 0.265 -0.12 -0.34 0.265 -0.12 0.391 -0.095 1.51794e-08 0.391 -0.095 1.51794e-08 0.391 -0.095 0.14 0.391 -0.095 0.14 0.34 -0.265 0.03 0.34 -0.265 0.03 0.34 -0.265 -0.12 0.34 -0.265 -0.12 0.34 -0.265 -0.12 0.199 -0.095 0.14 0.199 -0.095 0.14 0.199 -0.095 1.51794e-08 0.199 -0.095 1.51794e-08 0.25 -0.265 -0.12 0.25 -0.265 -0.12 0.25 -0.265 -0.12 0.25 -0.265 0.03 0.25 -0.265 0.03 -0.34 0.265 0.03 -0.25 0.265 0.03 0.25 0.265 0.03 0.34 0.265 0.03 0.34 -0.265 0.0300001 0.34 -0.265 0.0300001 0.25 -0.265 0.0300001 0.25 -0.265 0.0300001 -0.25 -0.265 0.0300001 -0.34 -0.265 0.0300001</float_array><technique_common><accessor source="#Material-positions-array" count="86" stride="3"><param name="X" type="float"/><param name="Y" type="float"/><param name="Z" type="float"/></accessor></technique_common></source>
<source id="Material-normals"><float_array id="Material-normals-array" count="144">0 -0.543251 0.83957 0.957826 -0.287348 3.92025e-08 -0.957826 -0.287348 3.92024e-08 0 0.576683 -0.816968 -0 0.543251 0.83957 0.957826 0.287348 -3.92025e-08 -0 0.543251 0.83957 -0.957826 0.287348 -3.92025e-08 0.957826 0.287348 -3.92024e-08 -0 -0.576683 -0.816968 -0.957826 0.287348 -3.92024e-08 -0 -0.576683 -0.816968 0.957826 -0.287348 3.92024e-08 -0.957826 -0.287348 3.92025e-08 0 0.576683 -0.816968 0 0 0 0 1 -1.26667e-07 0 1 -1.26667e-07 0 -1 1.26667e-07 0 -1 1.26667e-07 0 0 0 0 0 0 0 0 0 0 -0.543251 0.83957 0 -0.543251 0.83957 0.957826 -0.287348 3.63974e-08 -0.957826 -0.287348 3.63974e-08 0 0.576683 -0.816968 0 0.543251 0.83957 0.957826 0.287348 -3.63974e-08 0 0.543251 0.83957 -0.957826 0.287348 -3.63974e-08 0.957826 0.287348 -3.63974e-08 0 -0.576683 -0.816968 -0.957826 0.287348 -3.63974e-08 0 -0.576683 -0.816968 0.957826 -0.287348 3.63974e-08 -0.957826 -0.287348 3.63974e-08 0 0.576683 -0.816968 0 0 0 0 1 -1.26667e-07 0 1 -1.26667e-07 0 -1 1.26667e-07 0 -1 1.26667e-07 0 0 0 0 0 0 0 0 0 0 -0.543251 0.83957</float_array><technique_common><accessor source="#Material-normals-array" count="48" stride="3"><param name="X" type="float"/><param name="Y" type="float"/><param name="Z" type="float"/></accessor></technique_common></source>
<vertices id="Material-vertices"><input semantic="POSITION" source="#Material-positions"/></vertices>
<triangles material="Material-material" count="48"><input semantic="VERTEX" source="#Material-vertices" offset="0"/><input semantic="NORMAL" source="#Material-normals" offset="1"/><p>1 0 2 0 4 0 11 1 0 1 9 1 3 2 16 2 21 2 17 3 10 3 14 3 22 4 25 4 27 4 24 5 30 5 34 5 35 6 37 6 40 6 44 7 36 7 42 7 38 8 48 8 51 8 49 9 43 9 46 9 54 10 23 10 28 10 31 11 53 11 55 11 59 12 60 12 63 12 67 13 70 13 71 13 69 14 58 14 66 14 5 15 18 15 18 15 33 16 57 16 76 16 50 17 45 17 78 17 72 18 64 18 80 18 19 19 13 19 84 19 12 20 7 20 7 20 82 21 81 21 81 21 82 22 82 22 82 22 61 23 68 23 74 23 4 24 8 24 1 24 9 25 15 25 11 25 21 26 6 26 3 26 14 27 20 27 17 27 27 28 29 28 22 28 34 29 26 29 24 29 40 30 41 30 35 30 42 31 47 31 44 31 51 32 39 32 38 32 46 33 52 33 49 33 28 34 56 34 54 34 55 35 32 35 31 35 63 36 65 36 59 36 71 37 75 37 67 37 66 38 73 38 69 38 18 39 5 39 5 39 76 40 77 40 33 40 78 41 79 41 50 41 80 42 83 42 72 42 84 43 85 43 19 43 7 44 12 44 12 44 81 45 82 45 82 45 82 46 82 46 82 46 74 47 62 47 61 47</p></triangles>
</mesh></geometry><geometry id="MaterialBody-mesh" name="MaterialBody"><mesh>
<source id="MaterialBody-positions"><float_array id="MaterialBody-positions-array" count="216">0.43 0.095 0.14 0.43 0.095 0.14 0.43 0.095 0.14 0.16 0.095 0.14 0.16 0.095 0.14 0.16 0.095 0.14 0.16 -0.095 0.14 0.16 -0.095 0.14 0.16 -0.095 0.14 0.43 -0.095 0.14 0.43 -0.095 0.14 0.43 -0.095 0.14 0.16 0.22 0.19 0.16 0.22 0.19 0.16 0.22 0.19 0.16 0.22 -3.58425e-08 0.16 0.22 -3.58425e-08 0.16 0.22 -3.58425e-08 -0.16 0.22 -3.58425e-08 -0.16 0.22 -3.58425e-08 -0.16 0.22 -3.58425e-08 -0.16 0.22 0.19 -0.16 0.22 0.19 -0.16 0.22 0.19 -0.43 0.095 0.14 -0.43 0.095 0.14 -0.43 0.095 0.14 -0.43 0.095 -1.54775e-08 -0.43 0.095 -1.54775e-08 -0.43 0.095 -1.54775e-08 -0.43 -0.095 1.54775e-08 -0.43 -0.095 1.54775e-08 -0.43 -0.095 1.54775e-08 -0.43 -0.095 0.14 -0.43 -0.095 0.14 -0.43 -0.095 0.14 -0.16 -0.095 1.54775e-08 -0.16 -0.095 1.54775e-08 -0.16 -0.095 1.54775e-08 -0.16 -0.095 0.14 -0.16 -0.095 0.14 -0.16 -0.095 0.14 0.43 -0.095 1.54775e-08 0.43 -0.095 1.54775e-08 0.43 -0.095 1.54775e-08 0.43 0.095 -1.54775e-08 0.43 0.095 -1.54775e-08 0.43 0.095 -1.54775e-08 -0.16 0.095 0.14 -0.16 0.095 0.14 -0.16 0.095 0.14 -0.16 0.095 -1.54775e-08 -0.16 0.095 -1.54775e-08 -0.16 0.095 -1.54775e-08 -0.16 -0.22 3.58425e-08 -0.16 -0.22 3.58425e-08 -0.16 -0.22 3.58425e-08 -0.16 -0.22 0.19 -0.16 -0.22 0.19 -0.16 -0.22 0.19 0.16 -0.095 1.54775e-08 0.16 -0.095 1.54775e-08 0.16 -0.095 1.54775e-08 0.16 0.095 -1.54775e-08 0.16 0.095 -1.54775e-08 0.16 0.095 -1.54775e-08 0.16 -0.22 3.58425e-08 0.16 -0.22 3.58425e-08 0.16 -0.22 3.58425e-08 0.16 -0.22 0.19 0.16 -0.22 0.19 0.16 -0.22 0.19</float_array><technique_common><accessor source="#MaterialBody-positions-array" count="72" stride="3"><param name="X" type="float"/><param name="Y" type="float"/><param name="Z" type="float"/></accessor></technique_common></source>
<source id="MaterialBody-normals"><float_array id="MaterialBody-normals-array" count="132">0 2e-07 1 -0 2e-07 1 0 1 -2e-07 0 1 -2e-07 -1 -0 0 -1 0 0 0 -1 1.36429e-07 0 -1 1.36429e-07 1 0 0 1 0 -0 0 1 -1.36429e-07 0 1 -1.36429e-07 -0 2e-07 1 0 2e-07 1 -1 0 0 -1 -0 0 -0 -1.62921e-07 -1 0 -1.62921e-07 -1 0 0 0 0 0 0 -0 -1.62921e-07 -1 -2.2e-15 -1.62921e-07 -1 1.44737e-15 -1.62921e-07 -1 0 -1.62921e-07 -1 0 1 -1.36429e-07 0 1 -1.36429e-07 1 0 0 1 -0 0 1 0 0 1 0 -0 -0 1.72727e-07 1 0 1.72727e-07 1 -1 0 -0 -1 0 0 -1 -0 0 -1 0 0 0 -1 1.36429e-07 0 -1 1.36429e-07 1 0 -0 1 0 0 0 -1.62921e-07 -1 -0 -1.62921e-07 -1 0 -1 2e-07 0 -1 2e-07</float_array><technique_common><accessor source="#MaterialBody-normals-array" count="44" stride="3"><param name="X" type="float"/><param name="Y" type="float"/><param name="Z" type="float"/></accessor></technique_common></source>
<vertices id="MaterialBody-vertices"><input semantic="POSITION" source="#MaterialBody-positions"/></vertices>
<triangles material="MaterialBody-material" count="44"><input semantic="VERTEX" source="#MaterialBody-vertices" offset="0"/><input semantic="NORMAL" source="#MaterialBody-normals" offset="1"/><p>0 0 3 0 6 0 6 1 11 1 0 1 14 2 15 2 18 2 18 3 23 3 14 3 25 4 27 4 30 4 30 5 33 5 25 5 35 6 31 6 36 6 36 7 41 7 35 7 10 8 44 8 47 8 47 9 1 9 10 9 29 10 26 10 49 10 49 11 53 11 29 11 34 12 39 12 50 12 50 13 24 13 34 13 55 14 59 14 40 14 40 15 37 15 55 15 42 16 62 16 63 16 63 17 46 17 42 17 17 18 63 18 62 18 17 19 62 19 67 19 17 20 67 20 54 20 17 21 54 21 38 21 17 22 38 22 52 22 17 23 52 23 20 23 2 24 45 24 64 24 64 25 5 25 2 25 13 26 70 26 8 26 8 27 4 27 13 27 70 28 66 28 60 28 60 29 8 29 70 29 57 30 69 30 12 30 12 31 22 31 57 31 59 32 21 32 48 32 48 33 40 33 59 33 21 34 19 34 51 34 51 35 48 35 21 35 43 36 9 36 7 36 7 37 61 37 43 37 16 38 13 38 4 38 4 39 65 39 16 39 28 40 52 40 38 40 38 41 32 41 28 41 58 42 56 42 68 42 68 43 71 43 58 43</p></triangles>
</mesh></geometry></library_geometries>
<library_visual_scenes><visual_scene id="Scene" name="Scene"><node id="Material" name="Material"><instance_geometry url="#Material-mesh"><bind_material><technique_common><instance_material symbol="Material-material" target="#Material-material"/></technique_common></bind_material></instance_geometry></node><node id="MaterialBody" name="MaterialBody"><instance_geometry url="#MaterialBody-mesh"><bind_material><technique_common><instance_material symbol="MaterialBody-material" target="#MaterialBody-material"/></technique_common></bind_material></instance_geometry></node></visual_scene></library_visual_scenes>
<scene><instance_visual_scene url="#Scene"/></scene>
</COLLADA>
